HIERARCHY
ROOT Hips
{
	OFFSET 0.000000 0.000000 0.000000
	CHANNELS 6 Xposition Yposition Zposition Zrotation Yrotation Xrotation 
	JOINT LHipJoint
	{
		OFFSET 0.000000 0.000000 0.000000
		CHANNELS 3 Zrotation Yrotation Xrotation
		JOINT LeftUpLeg
		{
			OFFSET 1.363060 -1.794630 0.839290
			CHANNELS 3 Zrotation Yrotation Xrotation
			JOINT LeftLeg
			{
				OFFSET 2.448110 -6.726130 0.000000
				CHANNELS 3 Zrotation Yrotation Xrotation
				JOINT LeftFoot
				{
					OFFSET 2.562200 -7.039590 0.000000
					CHANNELS 3 Zrotation Yrotation Xrotation
					JOINT LeftToeBase
					{
						OFFSET 0.157640 -0.433110 2.322550
						CHANNELS 3 Zrotation Yrotation Xrotation
						End Site
						{
							OFFSET 0.000000 0.000000 0.000000
						}
					}
				}
			}
		}
	}
	JOINT RHipJoint
	{
		OFFSET 0.000000 0.000000 0.000000
		CHANNELS 3 Zrotation Yrotation Xrotation
		JOINT RightUpLeg
		{
			OFFSET -1.305520 -1.794630 0.839290
			CHANNELS 3 Zrotation Yrotation Xrotation
			JOINT RightLeg
			{
				OFFSET -2.542530 -6.985550 0.000000
				CHANNELS 3 Zrotation Yrotation Xrotation
				JOINT RightFoot
				{
					OFFSET -2.568260 -7.056230 0.000000
					CHANNELS 3 Zrotation Yrotation Xrotation
					JOINT RightToeBase
					{
						OFFSET -0.164730 -0.452590 2.363150
						CHANNELS 3 Zrotation Yrotation Xrotation
						End Site
						{
							OFFSET 0.000000 0.000000 0.000000
						}
					}
				}
			}
		}
	}
	JOINT LowerBack
	{
		OFFSET 0.000000 0.000000 0.000000
		CHANNELS 3 Zrotation Yrotation Xrotation
		JOINT Spine
		{
			OFFSET 0.028270 2.035590 -0.193380
			CHANNELS 3 Zrotation Yrotation Xrotation
			JOINT Spine1
			{
				OFFSET 0.056720 2.048850 -0.042750
				CHANNELS 3 Zrotation Yrotation Xrotation
				JOINT Neck
				{
					OFFSET 0.000000 0.000000 0.000000
					CHANNELS 3 Zrotation Yrotation Xrotation
					JOINT Neck1
					{
						OFFSET -0.054170 1.746240 0.172020
						CHANNELS 3 Zrotation Yrotation Xrotation
						JOINT Head
						{
							OFFSET 0.104070 1.761360 -0.123970
							CHANNELS 3 Zrotation Yrotation Xrotation
							End Site
							{
								OFFSET 0.000000 0.000000 0.000000
							}
						}
					}
				}
				JOINT LeftShoulder
				{
					OFFSET 0.000000 0.000000 0.000000
					CHANNELS 3 Zrotation Yrotation Xrotation
					JOINT LeftArm
					{
						OFFSET 3.362410 1.200890 -0.311210
						CHANNELS 3 Zrotation Yrotation Xrotation
						JOINT LeftForeArm
						{
							OFFSET 4.983000 -0.000000 -0.000000
							CHANNELS 3 Zrotation Yrotation Xrotation
							JOINT LeftHand
							{
								OFFSET 3.483560 -0.000000 -0.000000
								CHANNELS 3 Zrotation Yrotation Xrotation
								JOINT LeftFingerBase
								{
									OFFSET 0.000000 0.000000 0.000000
									CHANNELS 3 Zrotation Yrotation Xrotation
									JOINT LeftHandIndex1
									{
										OFFSET 0.715260 -0.000000 -0.000000
										CHANNELS 3 Zrotation Yrotation Xrotation
										End Site
										{
											OFFSET 0.000000 0.000000 0.000000
										}
									}
								}
								JOINT LThumb
								{
									OFFSET 0.000000 0.000000 0.000000
									CHANNELS 3 Zrotation Yrotation Xrotation
									End Site
									{
										OFFSET 0.000000 0.000000 0.000000
									}
								}
							}
						}
					}
				}
				JOINT RightShoulder
				{
					OFFSET 0.000000 0.000000 0.000000
					CHANNELS 3 Zrotation Yrotation Xrotation
					JOINT RightArm
					{
						OFFSET -3.136600 1.374050 -0.404650
						CHANNELS 3 Zrotation Yrotation Xrotation
						JOINT RightForeArm
						{
							OFFSET -5.241900 -0.000000 -0.000000
							CHANNELS 3 Zrotation Yrotation Xrotation
							JOINT RightHand
							{
								OFFSET -3.444170 -0.000000 -0.000000
								CHANNELS 3 Zrotation Yrotation Xrotation
								JOINT RightFingerBase
								{
									OFFSET 0.000000 0.000000 0.000000
									CHANNELS 3 Zrotation Yrotation Xrotation
									JOINT RightHandIndex1
									{
										OFFSET -0.622530 -0.000000 -0.000000
										CHANNELS 3 Zrotation Yrotation Xrotation
										End Site
										{
											OFFSET 0.000000 0.000000 0.000000
										}
									}
								}
								JOINT RThumb
								{
									OFFSET 0.000000 0.000000 0.000000
									CHANNELS 3 Zrotation Yrotation Xrotation
									End Site
									{
										OFFSET 0.000000 0.000000 0.000000
									}
								}
							}
						}
					}
				}
			}
		}
	}
}
MOTION
Frames: 9
Frame Time: 0.008333
3.581745 17.315777 1.865434 -2.677326 -1.199722 -5.761644 -7.028009 -1.223471 1.944228 1.982711 6.438827 -17.033803 6.642437 16.106781 47.339428 6.120277 -8.458408 1.946100 0.417300 -4.146600 -11.489600 7.313376 1.707063 2.013829 4.511103 -9.956472 -18.924476 -7.275223 -16.632813 50.027487 -2.859154 2.370565 -5.926514 -0.271000 3.348800 -9.251400 2.730584 -0.111895 7.791316 1.738776 0.331327 -2.106463 1.584748 -0.123429 -2.539797 -1.521878 -0.609057 -19.790252 3.219982 -0.724599 10.811300 -0.896300 -0.428500 11.974000 -4.741805 -15.266775 -3.295494 -17.010184 -35.642599 -0.401160 39.047535 -35.047924 -30.906421 2.828660 -6.499624 18.951755 -13.396190 8.111299 -4.318600 -7.125000 0.000000 0.000000 -38.477500 39.949300 5.831000 5.042524 14.868053 -3.896119 4.928857 35.395312 -3.082353 -27.403152 33.844283 -16.271016 -0.656107 5.720486 20.389891 9.175584 -12.966995 -3.703200 7.125000 0.000000 0.000000 36.075300 -44.731100 0.277400 
3.582282 17.315347 1.866078 -2.669056 -1.194728 -5.762213 -7.029986 -1.224516 1.944623 1.973520 6.428219 -17.030244 6.644241 16.109437 47.349019 6.123294 -8.468337 1.940304 0.414600 -4.133000 -11.451200 7.312532 1.706512 2.013734 4.502151 -9.951419 -18.920511 -7.279169 -16.634824 50.037682 -2.858147 2.367405 -5.936044 -0.273000 3.361100 -9.285600 2.734679 -0.108333 7.797083 1.737768 0.336702 -2.107200 1.573759 -0.120507 -2.548858 -1.520246 -0.615865 -19.771387 3.216517 -0.734434 10.812542 -0.901600 -0.432700 11.970100 -4.740554 -15.267490 -3.300283 -17.026651 -35.660983 -0.387314 39.055744 -35.046322 -30.902862 2.824943 -6.495686 18.973527 -13.380252 8.099570 -4.308800 -7.125000 0.000000 0.000000 -38.456200 39.938400 5.839200 5.043072 14.870161 -3.890366 4.919138 35.381350 -3.089169 -27.392957 33.837028 -16.266207 -0.656688 5.722337 20.364628 9.170851 -12.971378 -3.702700 7.125000 0.000000 0.000000 36.074400 -44.737700 0.270600 
3.582604 17.314380 1.866401 -2.681267 -1.208851 -5.758786 -7.028259 -1.225392 1.943500 1.983037 6.428995 -17.034772 6.648761 16.110701 47.358532 6.108510 -8.432275 1.932790 0.422600 -4.172100 -11.561400 7.314715 1.710787 2.011200 4.513824 -9.922447 -18.922100 -7.280430 -16.637395 50.049044 -2.844024 2.335920 -5.945744 -0.275500 3.376200 -9.328100 2.758037 -0.109251 7.804152 1.738324 0.338229 -2.108101 1.567976 -0.120365 -2.553745 -1.526584 -0.619939 -19.785576 3.221915 -0.737328 10.830868 -0.894900 -0.433700 11.989300 -4.739853 -15.271386 -3.302543 -17.020069 -35.660844 -0.407398 39.048241 -35.040760 -30.897387 2.824709 -6.502447 18.987965 -13.398017 8.127267 -4.324400 -7.125000 0.000000 0.000000 -38.487300 39.963000 5.817000 5.039817 14.875032 -3.896126 4.918426 35.391852 -3.083571 -27.382002 33.829684 -16.253689 -0.654795 5.720961 20.361339 9.160430 -12.969348 -3.698100 7.125000 0.000000 0.000000 36.062600 -44.737400 0.270800 
3.583464 17.314380 1.867260 -2.641966 -1.226329 -5.757506 -7.034872 -1.228434 1.946539 1.941552 6.436122 -17.035517 6.650405 16.114320 47.371528 6.093088 -8.396191 1.893193 0.428200 -4.199400 -11.638200 7.310232 1.708654 2.006986 4.470238 -9.900364 -18.916014 -7.286392 -16.639417 50.056582 -2.864910 2.383807 -5.937735 -0.269900 3.342000 -9.232500 2.725967 -0.100963 7.799722 1.734039 0.345303 -2.107531 1.565621 -0.115583 -2.551925 -1.522746 -0.622600 -19.767986 3.226803 -0.743268 10.833317 -0.893200 -0.434900 11.984200 -4.742804 -15.268932 -3.299390 -17.010991 -35.650380 -0.396512 39.047596 -35.044421 -30.897483 2.820170 -6.501926 18.995478 -13.371130 8.131243 -4.318000 -7.125000 0.000000 0.000000 -38.467400 39.970300 5.804000 5.038227 14.875122 -3.894734 4.908356 35.389190 -3.073339 -27.377739 33.830427 -16.250861 -0.656646 5.722517 20.335569 9.162019 -12.971061 -3.699300 7.125000 0.000000 0.000000 36.066000 -44.740200 0.267900 
3.584001 17.312769 1.866401 -2.665899 -1.241459 -5.760207 -7.030854 -1.227535 1.945379 1.965469 6.438345 -17.039104 6.657159 16.116340 47.385035 6.099923 -8.414324 1.903690 0.421300 -4.166000 -11.544300 7.313242 1.713401 2.005522 4.493520 -9.864187 -18.914939 -7.286953 -16.642509 50.069975 -2.852134 2.358374 -5.935943 -0.271000 3.348500 -9.250600 2.760465 -0.099680 7.825841 1.737105 0.351856 -2.110066 1.559915 -0.113367 -2.571929 -1.518824 -0.614464 -19.770138 3.221751 -0.732675 10.844996 -0.896600 -0.430300 11.996800 -4.740205 -15.272354 -3.300163 -17.020626 -35.655191 -0.404044 39.059542 -35.041224 -30.905584 2.814270 -6.501422 18.985959 -13.345980 8.148231 -4.316000 -7.125000 0.000000 0.000000 -38.454000 39.990000 5.777800 5.040543 14.877228 -3.895394 4.900039 35.382439 -3.045227 -27.373311 33.827110 -16.243999 -0.655558 5.724886 20.300638 9.153453 -12.986319 -3.699300 7.125000 0.000000 0.000000 36.067100 -44.758000 0.249500 
3.584001 17.311802 1.866938 -2.677628 -1.257223 -5.751006 -7.028257 -1.229341 1.942149 1.977055 6.448674 -17.047302 6.661915 16.117084 47.392397 6.104600 -8.424550 1.898224 0.418500 -4.152100 -11.505000 7.314926 1.720617 2.004852 4.507009 -9.829748 -18.915551 -7.276736 -16.638566 50.073570 -2.611653 1.809025 -5.916928 -0.409200 4.106400 -11.376100 2.780217 -0.101918 7.815368 1.738426 0.350303 -2.108554 1.558026 -0.114459 -2.562528 -1.514814 -0.605187 -19.767142 3.217213 -0.721669 10.846746 -0.897000 -0.425900 11.994900 -4.738515 -15.273577 -3.297070 -17.005963 -35.644226 -0.439327 39.053635 -35.043081 -30.913555 2.818951 -6.501210 18.975513 -13.360029 8.139571 -4.317400 -7.125000 0.000000 0.000000 -38.461900 39.980000 5.791300 5.038473 14.875845 -3.901830 4.896168 35.400206 -3.042168 -27.376938 33.837609 -16.247986 -0.664196 5.726648 20.315891 9.199518 -12.965448 -3.712900 7.125000 0.000000 0.000000 36.099700 -44.731500 0.277200 
3.584968 17.311372 1.867153 -2.665164 -1.274598 -5.758143 -7.031750 -1.229572 1.944894 1.962770 6.453524 -17.040525 6.664643 16.119826 47.404295 6.092562 -8.397613 1.883687 0.421200 -4.165700 -11.543200 7.314896 1.720594 2.003094 4.491167 -9.790881 -18.898500 -7.277361 -16.640035 50.078782 -2.599285 1.783350 -5.903361 -0.409200 4.106400 -11.376100 2.779130 -0.098095 7.826286 1.738199 0.355676 -2.107603 1.559061 -0.111788 -2.563459 -1.523858 -0.607373 -19.764723 3.215416 -0.720488 10.859039 -0.895500 -0.426200 12.003200 -4.739215 -15.272772 -3.295312 -17.014905 -35.646511 -0.451920 39.056303 -35.040114 -30.915867 2.816367 -6.498370 18.973915 -13.343372 8.135499 -4.310500 -7.125000 0.000000 0.000000 -38.444700 39.977800 5.790100 5.037473 14.876711 -3.903894 4.892257 35.404276 -3.035297 -27.372459 33.836922 -16.243643 -0.666327 5.727733 20.326518 9.213617 -12.960260 -3.717500 7.125000 0.000000 0.000000 36.110700 -44.724800 0.284300 
3.586150 17.311694 1.868120 -2.631525 -1.273966 -5.759470 -7.038688 -1.232558 1.947319 1.926399 6.448327 -17.037820 6.662703 16.122069 47.410155 6.086241 -8.386009 1.870132 0.420800 -4.163600 -11.537400 7.310771 1.716866 2.002333 4.452463 -9.786210 -18.890391 -7.281242 -16.640209 50.081001 -2.604446 1.792855 -5.904808 -0.410200 4.111300 -11.389900 2.759746 -0.096624 7.830632 1.735453 0.355376 -2.107841 1.554237 -0.110451 -2.568207 -1.522886 -0.607902 -19.749073 3.208990 -0.721447 10.859500 -0.900300 -0.427200 11.999200 -4.739635 -15.271257 -3.293448 -17.022406 -35.648789 -0.439534 39.074205 -35.047283 -30.929802 2.810374 -6.499138 18.947798 -13.318821 8.164699 -4.313000 -7.125000 0.000000 0.000000 -38.438200 40.009900 5.750700 5.036333 14.877304 -3.904453 4.892753 35.406454 -3.028690 -27.365302 33.832111 -16.235818 -0.661176 5.729898 20.345788 9.207442 -12.982447 -3.719700 7.125000 0.000000 0.000000 36.117500 -44.746700 0.261700 
3.586257 17.311694 1.868442 -2.645171 -1.291748 -5.763276 -7.037131 -1.230117 1.948622 1.940907 6.456301 -17.031351 6.665361 16.122054 47.412742 6.080335 -8.370445 1.866913 0.424300 -4.180800 -11.585900 7.314331 1.719442 2.000934 4.465873 -9.745730 -18.876141 -7.279740 -16.642301 50.085862 -2.604648 1.796676 -5.899253 -0.404400 4.082400 -11.308700 2.780218 -0.090172 7.836805 1.737066 0.366592 -2.106242 1.552273 -0.105835 -2.564434 -1.527051 -0.608858 -19.769796 3.208419 -0.719520 10.876852 -0.899500 -0.426500 12.018100 -4.735439 -15.275359 -3.300059 -17.023391 -35.660934 -0.446146 39.073298 -35.047273 -30.929739 2.819553 -6.497886 18.952150 -13.362237 8.137525 -4.316300 -7.125000 0.000000 0.000000 -38.460100 39.977400 5.794000 5.034133 14.881841 -3.907245 4.875744 35.411064 -3.056360 -27.348932 33.825599 -16.227077 -0.667414 5.729864 20.381203 9.234595 -12.951552 -3.724500 7.125000 0.000000 0.000000 36.127600 -44.713100 0.296600 
